<svg xmlns="http://www.w3.org/2000/svg" viewBox="0 0 153.52 36"><path d="M11.33,12.83a12.17,12.17,0,0,1,7.4-2.54,8.22,8.22,0,0,1,6.72,3.42,13.49,13.49,0,0,1,2.69,8.64q0,6.31-4.08,9.85a15.59,15.59,0,0,1-10.61,3.55,19.42,19.42,0,0,1-7-1.14,10.1,10.1,0,0,1-4.65-3.42A9.25,9.25,0,0,1,.1,25.71L0,6.21A6.32,6.32,0,0,1,1.55,1.5,5.72,5.72,0,0,1,5.69,0,5.84,5.84,0,0,1,10,1.37a6,6,0,0,1,1.37,4.37Zm.05,14.64A2.85,2.85,0,0,0,14,29.23c.93,0,1.65-.59,2.17-1.76a9.87,9.87,0,0,0,.78-4A14.07,14.07,0,0,0,16.71,21a11.87,11.87,0,0,0-.57-2.14,4.55,4.55,0,0,0-.93-1.56,1.76,1.76,0,0,0-1.29-.59,2.84,2.84,0,0,0-2.54,1.91v8.85Z" style="fill:#282828"/><path d="M43.77,24.47c0,2,.75,3,2.27,3a2.11,2.11,0,0,0,1.37-.49,3.09,3.09,0,0,0,.91-1.37,6,6,0,0,0,.31-2V16.61a7.2,7.2,0,0,1,.62-3.08,4.69,4.69,0,0,1,1.81-2,5.28,5.28,0,0,1,2.8-.72A6.81,6.81,0,0,1,58.2,12q1.54,1.21,1.55,4.47V29.9c0,2.11-.43,3.55-1.29,4.35s-2.38,1.19-4.55,1.19a8.6,8.6,0,0,1-2.38-.29A3.68,3.68,0,0,1,50,34.3,3.62,3.62,0,0,1,49,32.8a13.87,13.87,0,0,1-4.47,2,22.34,22.34,0,0,1-5.25.57A5.57,5.57,0,0,1,34,32.46q-1.6-2.87-1.6-9.44c0-2.17.05-3.94.15-5.3a25.75,25.75,0,0,1,.49-3.52,4.66,4.66,0,0,1,1-2.2,3.91,3.91,0,0,1,1.65-1,8.27,8.27,0,0,1,2.51-.31,6.44,6.44,0,0,1,4.17,1.08A4.08,4.08,0,0,1,43.71,15Z" style="fill:#282828"/><path d="M79,35.7a16.31,16.31,0,0,1-10.43-3.26,10.76,10.76,0,0,1-4.11-8.9,12.14,12.14,0,0,1,4.06-9.65A15.37,15.37,0,0,1,79,10.35q6,0,8.87,2.14a7,7,0,0,1,2.82,5.87,5.37,5.37,0,0,1-.18,1.4,5.07,5.07,0,0,1-.57,1.32,4.61,4.61,0,0,1-1,1.19,8.35,8.35,0,0,1-1.47,1,7.22,7.22,0,0,1-2,.68,12.45,12.45,0,0,1-2.43.23l-7.29.05a4.83,4.83,0,0,0,1.86,2.61,5.74,5.74,0,0,0,3.42,1,19.09,19.09,0,0,0,4.55-.57,11.85,11.85,0,0,0,2.15-.83,4.49,4.49,0,0,1,1.68-.57,1.83,1.83,0,0,1,1.37.52,1.86,1.86,0,0,1,.49,1.3,4.44,4.44,0,0,1-.83,2.24,12.13,12.13,0,0,1-6.21,4.89A14.48,14.48,0,0,1,79,35.7ZM75.48,20.9l3.88,0a1.21,1.21,0,0,0,1.14-.93,5.44,5.44,0,0,0,.26-1.87c0-2.17-.66-3.26-2-3.26a2,2,0,0,0-1.42.78,6.73,6.73,0,0,0-1.22,2.2A12.48,12.48,0,0,0,75.48,20.9Z" style="fill:#282828"/><path d="M111.43,21.47c0-1.93-.75-2.9-2.27-2.9a2.16,2.16,0,0,0-1.79.91,4.37,4.37,0,0,0-.8,2.4v8c0,2.1-.43,3.55-1.29,4.34s-2.38,1.19-4.55,1.19S97.3,34.91,96.56,34s-1.11-2.51-1.11-4.68V16.55a6.14,6.14,0,0,1,1.42-4.24,4.83,4.83,0,0,1,3.8-1.6,8.5,8.5,0,0,1,3.31.57,3.86,3.86,0,0,1,2,2,17.57,17.57,0,0,1,9.83-2.63,5.6,5.6,0,0,1,5.3,2.89c1.09,1.93,1.63,5.11,1.63,9.52,0,2.17-.05,3.94-.15,5.3a24.27,24.27,0,0,1-.49,3.52,4.53,4.53,0,0,1-1.06,2.2,4.21,4.21,0,0,1-1.68,1,8.06,8.06,0,0,1-2.46.31,6.44,6.44,0,0,1-4.17-1.08,4,4,0,0,1-1.26-3.21Z" style="fill:#282828"/><path d="M139.67,10.32l-.42,0a12.94,12.94,0,0,0-6.89,3,16.44,16.44,0,0,0-1.5,1.51,12.81,12.81,0,0,0-3,6.76,20.18,20.18,0,0,0,0,3.11,12.81,12.81,0,0,0,3,6.77,15.17,15.17,0,0,0,1.5,1.5,12.81,12.81,0,0,0,6.77,3,20.18,20.18,0,0,0,3.11,0A12.88,12.88,0,0,0,149,33a16.33,16.33,0,0,0,1.5-1.5,13,13,0,0,0,3-6.77,23.06,23.06,0,0,0,0-3.11,13,13,0,0,0-3-6.76,17.81,17.81,0,0,0-1.5-1.51,12,12,0,0,0-8.18-3Zm.16,1.37c0,.37,0,1.17.06,1.93,0,.37,0,.91.05,1.18,0,1,.14,3.58.16,3.81v.23l-.14,0a.36.36,0,0,1-.16,0,2.89,2.89,0,0,1-.05-.49c-.06-1.12-.24-5.49-.26-6.12l0-.7.09,0,.18,0h.08Zm3-.08s0,1,0,2.12,0,2.21,0,2.33,0,.21,0,.22h-.31l0-.92c0-.51,0-1.07,0-1.26,0-.56-.05-2.45,0-2.5s.05,0,.18,0Zm-7.3,1.06s.16,1.77.35,4c.06.77.12,1.48.13,1.57s0,.16-.09.23l-.13.06a.45.45,0,0,1,0-.18c0-.41-.21-2.4-.33-3.83-.07-.85-.13-1.6-.14-1.68s0-.15.07-.2S135.53,12.63,135.55,12.67Zm8.69.63c.09,0,.1,0,.12.23a17.78,17.78,0,0,1,0,1.83.47.47,0,0,1-.3-.17s0-.49,0-1C144,13.17,144,13.23,144.24,13.3Zm-5.83.15c0,.09,0,.56.05,1.05s0,1.13.06,1.4c0,.55,0,.53-.18.54s-.1,0-.11-.15,0-.36,0-.62-.06-.8-.08-1.21-.06-.83-.07-.92,0-.17.07-.2a.64.64,0,0,1,.2,0C138.41,13.3,138.41,13.3,138.41,13.45Zm8.76.44.11,0,0,.42c0,.23,0,.73,0,1.11v.69l-.13-.07L147,16V15c0-.58,0-1.07,0-1.09S147,13.83,147.17,13.89Zm-5.77.41s.07,1.55.07,2.33v.46l-.15,0-.15,0s-.11-2.35-.11-2.57v-.24l.16,0A.59.59,0,0,1,141.4,14.3Zm7.28.22c0,.05,0,.74,0,4.55,0,4.39,0,4.5,0,4.5a.25.25,0,0,1-.11,0,39,39,0,0,1-.07-4.16c0-2.27,0-4.33,0-4.58l0-.45.09.06Zm-2.84.65a1.18,1.18,0,0,1,0,.4c0,.7,0,5,0,5s-.06,0-.12,0l-.12,0V15.1l.09,0Zm-8.71.18c0,.08,0,.28,0,.43s0,.51.05.79c0,.55,0,.59-.15.59s-.1,0-.12-.11-.14-1.74-.12-1.76a.78.78,0,0,1,.25-.09S137.12,15.27,137.13,15.35Zm-5.23.8c0,.34.11,1,.16,1.56s.1,1,.1,1-.25.16-.27.14-.33-2.82-.33-2.94.24-.4.27-.36S131.87,15.82,131.9,16.15Zm12.39.33.09.06v.68c0,.37,0,.79,0,.93s0,.33-.2.27l-.1,0v-.27c0-.15,0-.59,0-1l0-.7h.08Zm-11,1.23c.06.61.15,1.63.21,2.27l.11,1.17-.13.13-.12.12,0-.25c0-.14-.08-.78-.14-1.43s-.16-1.6-.21-2.1l-.09-.91.12-.11c.11-.11.13-.11.15-.06S133.24,17.1,133.29,17.71Zm-2.37.38c.07.62.26,2.28.41,3.68s.31,2.75.34,3,.07.63.09.85.05.4,0,.43-.11.06-.11,0,0-.27-.06-.53c-.06-.43-.15-1.16-.37-2.81,0-.33-.13-1-.19-1.47l-.2-1.58c-.05-.39-.14-1.06-.19-1.49a6.46,6.46,0,0,1-.08-.85,1.27,1.27,0,0,1,.22-.37S130.85,17.47,130.92,18.09Zm-1,1.36c0,.38.13,1.07.19,1.55s.14,1.05.17,1.29l.06.44-.06.06s-.08,0-.09,0a1.39,1.39,0,0,1-.06-.28c0-.14-.13-.95-.26-1.8l-.22-1.55.07-.21a.75.75,0,0,1,.09-.21A6.75,6.75,0,0,1,130,19.45ZM147.3,19a7.15,7.15,0,0,1,0,1.69v1.64h-.09c-.19,0-.19.05-.2-1.75V19h.1A.25.25,0,0,1,147.3,19Zm-6.92.57a5.79,5.79,0,0,1,2,.62,3.62,3.62,0,0,1,1,.77A6.25,6.25,0,0,1,144.8,23c.56,1.13.77,2.14,1,4.82.13,1.2.29,3.39.32,4.28,0,.26,0,.68.05,1,0,.55.08.48-.41.71a10.3,10.3,0,0,1-2.2.77,10.57,10.57,0,0,1-2.77.35h-.76v-.36c0-.2,0-.67,0-1a38.32,38.32,0,0,0-.05-5.21,11,11,0,0,0-.28-1.76s.06-.07.37-.18a3.51,3.51,0,0,0,1.15-.57c.13-.24-.11-.57-.42-.57a1.62,1.62,0,0,0-.36.12,11.57,11.57,0,0,1-3,.79,8.38,8.38,0,0,1-2-.08,6.32,6.32,0,0,1-1.42-.54,1.83,1.83,0,0,1-1-1.16,2.82,2.82,0,0,1,0-1,3.25,3.25,0,0,1,.51-1,8,8,0,0,1,4.66-2.57A7.09,7.09,0,0,1,140.38,19.61Zm9.75.09c.11.05.12.06.12.17,0,.86,0,2.83,0,2.92s-.16,0-.23,0-.05-.18-.05-1.58c0-1,0-1.56,0-1.56Zm1.38,1.74.11,0,0,2.62c0,3.33,0,3.43-.15,3.72-.2.47-.19.56-.17-1.5,0-1,0-2.08,0-2.32s0-.93,0-1.53a7.32,7.32,0,0,1,0-1.08Zm-19,.78a.72.72,0,0,1-.08.49l-.1.21,0-.31c-.06-.51-.06-.53.06-.61s.11-.06.12-.05A1,1,0,0,1,132.51,22.22Zm-1.95,1.91c0,.26.25,2,.36,2.82.17,1.3.19,1.49.11,1.41s-.08-.45-.16-1c-.49-3.4-.49-3.38-.45-3.4S130.54,24,130.56,24.13Zm2.27,1.44c0,.08.11.94.11,1s-.11.17-.16.12a2.9,2.9,0,0,1-.09-.59c0-.31-.07-.64-.08-.72l0-.16.11.13A.51.51,0,0,1,132.83,25.57Zm2.55,1.2s.06.15.09.49c.05.62.05.57-.08.57s-.13,0-.17-.54-.05-.56,0-.56A.25.25,0,0,1,135.38,26.77Zm2.5,0a3.35,3.35,0,0,1,0,.42c0,.2,0,.65.06,1,.09,1.27.09,1.44,0,1.44s-.07-.05-.14-1c0-.38-.07-1-.1-1.31a6,6,0,0,1,0-.63A.1.1,0,0,1,137.88,26.81Zm-5.93.61s.14,1,.28,2.42c.05.42.09.82.1.89l0,.14-.08-.05a.16.16,0,0,1-.08-.16c0-.2-.14-1.51-.24-2.31-.06-.45-.11-.85-.11-.89A.06.06,0,0,1,132,27.42Zm18.22,1.32,0,1.32-.08.12c-.18.26-.17.31-.16-1.17V27.66l.12-.12.13-.12S150.18,28,150.17,28.74Zm-2.92,2.09c0,1.84,0,2,0,2l-.06.05s-.06-4,0-4.05,0,0,.07,0A9,9,0,0,1,147.25,30.83Zm-10.31-1.25c0,.19.1,1.13.13,1.57s0,.31,0,.33a.11.11,0,0,1-.1,0s-.09-.72-.17-1.8l0-.26h.09C136.92,29.41,136.92,29.42,136.94,29.58Zm-2.49,1.1s0,.1,0,.18,0,.51.08.95c.12,1.21.13,1.38.08,1.35s-.16-.12-.14-.14,0-.17,0-.35,0-.48-.07-.67,0-.52-.06-.74c-.06-.55-.06-.62,0-.62A.15.15,0,0,1,134.45,30.68Zm1.5,2.13c0,.07,0,.33,0,.57,0,.48,0,.51-.12.41s-.06-.15-.1-.51c-.06-.65-.07-.62.06-.61S135.93,32.69,136,32.81Z" style="fill:#282828"/><path d="M134.82,21.12a.41.41,0,0,0,0,.74.41.41,0,0,0,.57-.13A.42.42,0,0,0,134.82,21.12Z" style="fill:#282828"/><path d="M137,21.42a.49.49,0,0,0,0,.82.46.46,0,0,0,.69-.41A.47.47,0,0,0,137,21.42Z" style="fill:#282828"/></svg>